<mxfile host="app.diagrams.net" agent="Mozilla/5.0 (Windows NT 10.0; Win64; x64) AppleWebKit/537.36 (KHTML, like Gecko) Chrome/128.0.0.0 Safari/537.36" version="24.7.14">
  <diagram name="Page-1" id="oLkVSgPaHfyfeKylZ4uy">
    <mxGraphModel dx="962" dy="684" grid="0" gridSize="10" guides="1" tooltips="1" connect="1" arrows="1" fold="1" page="0" pageScale="1" pageWidth="850" pageHeight="1100" math="0" shadow="0">
      <root>
        <mxCell id="0" />
        <mxCell id="1" parent="0" />
        <mxCell id="20g5d3pmv2KhVcUkiojV-5" value="&lt;p style=&quot;line-height: 80%;&quot;&gt;&lt;/p&gt;&lt;blockquote style=&quot;margin: 0 0 0 40px; border: none; padding: 0px;&quot;&gt;&lt;h1 style=&quot;text-align: justify; box-sizing: inherit; outline-color: inherit; margin: -10px 0px 0px; padding: 0px; overflow-wrap: break-word; word-break: break-word; line-height: 1.3; color: rgb(22, 22, 22); font-family: &amp;quot;Segoe UI&amp;quot;, SegoeUI, &amp;quot;Helvetica Neue&amp;quot;, Helvetica, Arial, sans-serif; font-size: 16px;&quot; id=&quot;overview-of-aspnet-core-authentication&quot;&gt;&lt;font style=&quot;font-size: 16px;&quot;&gt;Overview of ASP.NET Core authentication&lt;/font&gt;&lt;/h1&gt;&lt;/blockquote&gt;&lt;div style=&quot;box-sizing: inherit; outline-color: inherit; color: rgb(22, 22, 22); font-family: &amp;quot;Segoe UI&amp;quot;, SegoeUI, &amp;quot;Helvetica Neue&amp;quot;, Helvetica, Arial, sans-serif; font-weight: 400; display: flex !important; justify-content: space-between !important; align-items: center !important; flex-wrap: wrap !important; font-size: 16px;&quot; class=&quot;display-flex justify-content-space-between align-items-center flex-wrap-wrap page-metadata-container&quot;&gt;&lt;div style=&quot;box-sizing: inherit; outline-color: inherit; margin-inline-end: 0.5rem !important;&quot; class=&quot;margin-right-xxs&quot;&gt;&lt;ul style=&quot;box-sizing: inherit; outline-color: inherit; list-style: none; color: var(--theme-text-subtle); display: flex; flex-wrap: wrap; margin: 0px !important; padding: 0.125rem 0px 0px !important;&quot; dir=&quot;ltr&quot; lang=&quot;en-us&quot; data-bi-name=&quot;page info&quot; class=&quot;metadata page-metadata&quot;&gt;&lt;li style=&quot;box-sizing: inherit; outline-color: inherit; margin: 0px; padding: 0px; outline-style: initial; outline-width: 0px; list-style: none; flex-basis: auto; align-items: center; display: flex;&quot;&gt;&lt;font style=&quot;text-align: justify; font-size: 16px;&quot;&gt;&lt;font style=&quot;font-size: 16px;&quot;&gt;Article&lt;/font&gt;&lt;/font&gt;&lt;/li&gt;&lt;li style=&quot;box-sizing: inherit; outline-color: inherit; margin: 0px; padding: 0px; outline-style: initial; outline-width: 0px; list-style: none; flex-basis: auto; align-items: center; display: flex;&quot; class=&quot;visibility-hidden-visual-diff&quot;&gt;&lt;time style=&quot;box-sizing: inherit; outline-color: inherit;&quot; data-article-date-source=&quot;calculated&quot; datetime=&quot;2023-10-18T18:45:00.000Z&quot; aria-label=&quot;Article review date&quot; data-article-date=&quot;&quot; class=&quot;&quot;&gt;&lt;font style=&quot;font-size: 16px;&quot;&gt;10/18/2023&lt;/font&gt;&lt;/time&gt;&lt;/li&gt;&lt;/ul&gt;&lt;/div&gt;&lt;/div&gt;&lt;p&gt;&lt;/p&gt;" style="swimlane;whiteSpace=wrap;html=1;align=left;startSize=67;" vertex="1" parent="1">
          <mxGeometry x="-103" y="33" width="387" height="787" as="geometry" />
        </mxCell>
        <mxCell id="20g5d3pmv2KhVcUkiojV-7" value="&lt;ul style=&quot;font-size: 11px;&quot;&gt;&lt;li&gt;&lt;span style=&quot;color: rgb(22, 22, 22); font-family: &amp;quot;Segoe UI&amp;quot;, SegoeUI, &amp;quot;Helvetica Neue&amp;quot;, Helvetica, Arial, sans-serif;&quot;&gt;In ASP.NET Core, authentication is handled by the authentication service,&amp;nbsp;&lt;/span&gt;&lt;a style=&quot;box-sizing: inherit; outline-color: inherit; cursor: pointer; overflow-wrap: break-word; text-decoration-line: none; outline-style: initial; outline-width: 0px; font-family: &amp;quot;Segoe UI&amp;quot;, SegoeUI, &amp;quot;Helvetica Neue&amp;quot;, Helvetica, Arial, sans-serif;&quot; data-linktype=&quot;absolute-path&quot; class=&quot;no-loc&quot; href=&quot;https://learn.microsoft.com/en-us/dotnet/api/microsoft.aspnetcore.authentication.iauthenticationservice&quot;&gt;IAuthenticationService&lt;/a&gt;&lt;span style=&quot;color: rgb(22, 22, 22); font-family: &amp;quot;Segoe UI&amp;quot;, SegoeUI, &amp;quot;Helvetica Neue&amp;quot;, Helvetica, Arial, sans-serif;&quot;&gt;, which is used by authentication&amp;nbsp;&lt;/span&gt;&lt;a style=&quot;box-sizing: inherit; outline-color: inherit; cursor: pointer; overflow-wrap: break-word; text-decoration-line: none; outline-style: initial; outline-width: 0px; font-family: &amp;quot;Segoe UI&amp;quot;, SegoeUI, &amp;quot;Helvetica Neue&amp;quot;, Helvetica, Arial, sans-serif;&quot; data-linktype=&quot;relative-path&quot; href=&quot;https://learn.microsoft.com/en-us/aspnet/core/fundamentals/middleware/?view=aspnetcore-8.0&quot;&gt;middleware&lt;/a&gt;&lt;span style=&quot;color: rgb(22, 22, 22); font-family: &amp;quot;Segoe UI&amp;quot;, SegoeUI, &amp;quot;Helvetica Neue&amp;quot;, Helvetica, Arial, sans-serif;&quot;&gt;. The authentication service uses registered authentication handlers to complete authentication-related actions. Examples of authentication-related actions include: Authenticating a user. Responding when an unauthenticated user tries to access a restricted resource.&lt;br&gt;&amp;nbsp;&lt;/span&gt;&lt;br&gt;&lt;/li&gt;&lt;li&gt;&lt;span style=&quot;color: rgb(22, 22, 22); font-family: &amp;quot;Segoe UI&amp;quot;, SegoeUI, &amp;quot;Helvetica Neue&amp;quot;, Helvetica, Arial, sans-serif;&quot;&gt;&lt;br&gt;&lt;/span&gt;&lt;/li&gt;&lt;/ul&gt;" style="text;strokeColor=none;fillColor=none;html=1;whiteSpace=wrap;verticalAlign=middle;overflow=hidden;align=left;" vertex="1" parent="20g5d3pmv2KhVcUkiojV-5">
          <mxGeometry x="11" y="76" width="360" height="406" as="geometry" />
        </mxCell>
      </root>
    </mxGraphModel>
  </diagram>
</mxfile>
